<svg width="200" height="225" viewBox="0 0 200 225" fill="none" xmlns="http://www.w3.org/2000/svg">
<path fill-rule="evenodd" clip-rule="evenodd" d="M73.07 0.831394C50.3472 3.18057 26.5362 9.74648 13.9198 17.1423C7.66349 20.8102 0.991269 28.0751 0.0189796 32.2774C-0.328904 33.7799 4.14786 73.1117 9.96822 119.681L20.5508 204.352L24.8525 208.683C32.7356 216.62 50.5535 221.827 78.3318 224.313C116.152 227.696 159.926 218.157 166.021 205.206C166.864 203.415 169.466 186.477 171.805 167.567L176.058 133.185L185.054 133.773C193.092 134.299 194.374 134.083 197.115 131.738C203.398 126.362 199.228 117.352 186.463 108.729C183.277 106.575 180.466 104.653 180.218 104.456C179.971 104.26 181.687 88.5518 184.033 69.5519C186.451 49.9562 187.966 33.5865 187.533 31.7273C185.546 23.2002 169.254 12.7682 149.49 7.36728C126.843 1.17969 95.5732 -1.49496 73.07 0.831394ZM63.714 10.9763C34.853 15.4104 8.3994 26.8332 8.3994 34.862C8.3994 42.504 26.1225 50.6396 53.5908 55.6058C72.6865 59.0587 117.561 58.726 137.071 54.9873C159.36 50.7153 176.187 43.5537 178.883 37.1931C182.213 29.3373 160.679 17.9842 131.343 12.1281C117.658 9.39698 78.3552 8.72682 63.714 10.9763ZM10.2849 54.1826C10.4878 55.5277 14.6747 89.0551 19.5885 128.688C29.6259 209.642 27.8853 202.721 39.3867 207.414C54.4973 213.58 65.0598 215.068 93.6977 215.068C117.356 215.067 121.815 214.75 132.166 212.335C144.057 209.561 155.598 204.823 157.973 201.74C159.384 199.908 168.154 133.277 167.31 130.79C167.03 129.965 165.991 129.289 164.999 129.289C162.214 129.289 133.035 116.918 115.54 108.32C101.624 101.481 99.4423 100.735 96.5377 101.825C92.3006 103.417 87.5997 101.128 85.5236 96.4617C81.107 86.5341 93.1792 77.5782 100.438 85.398C101.943 87.0193 103.175 89.1691 103.175 90.1768C103.175 92.3806 106.79 94.4284 127.788 104.117C147.73 113.319 167.81 121.321 168.661 120.405C169.442 119.564 177.864 53.2098 177.272 52.5696C177.04 52.3198 173.695 53.5292 169.84 55.2563C132.755 71.8698 57.1477 72.1641 19.4079 55.8424C10.4867 51.9835 9.937 51.8839 10.2849 54.1826ZM53.6778 91.1568C45.3854 105.131 32.9296 128.637 32.9296 130.312C32.9296 134.896 34.8965 135.294 57.6037 135.294C76.114 135.294 79.8783 134.995 81.3534 133.407C82.3168 132.368 83.1051 131.126 83.1051 130.646C83.1051 129.659 65.0498 96.846 61.7081 91.7573C59.0766 87.7532 55.8409 87.5106 53.6778 91.1568ZM50.9493 113.799C47.6745 119.778 45.2249 124.917 45.5047 125.219C45.7846 125.52 51.557 125.614 58.3318 125.426L70.6493 125.085L64.6194 114.279C61.3022 108.335 58.2092 103.349 57.7453 103.201C57.2815 103.052 54.223 107.821 50.9493 113.799ZM177.881 119.531C177.881 123.782 178.182 124.249 181.365 124.935C186.424 126.024 191.261 125.855 191.261 124.587C191.261 123.224 180.83 114.877 179.125 114.877C178.424 114.877 177.881 116.906 177.881 119.531ZM117.678 132.403C102.859 139.326 99.1211 160.551 110.554 172.866C115.649 178.355 120.574 180.141 128.834 179.497C147.169 178.069 156.01 155.008 144.16 139.524C137.858 131.289 126.565 128.252 117.678 132.403ZM116.954 144.076C113.608 147.377 112.836 149.062 112.41 153.984C111.734 161.792 115.122 167.547 121.889 170.086C126.024 171.638 127.157 171.638 131.293 170.086C138.06 167.547 141.447 161.792 140.771 153.984C140.345 149.062 139.573 147.377 136.228 144.076C132.783 140.676 131.384 140.098 126.591 140.098C121.797 140.098 120.398 140.676 116.954 144.076ZM46.5584 154.723C44.4878 156.953 44.6484 194.562 46.7357 196.428C47.795 197.375 54.1606 197.702 67.0847 197.476L85.8927 197.146V175.528V153.91L66.9074 153.582C53.0823 153.344 47.5508 153.654 46.5584 154.723ZM54.1148 175.528V189.339H66.38H78.6451V175.528V161.716H66.38H54.1148V175.528Z" fill="currentColor"/>
</svg>
