<svg width="150" height="175" viewBox="0 0 150 175" fill="none" xmlns="http://www.w3.org/2000/svg">
<path fill-rule="evenodd" clip-rule="evenodd" d="M54.8025 0.64664C37.7604 2.47377 19.9021 7.58059 10.4399 13.3329C5.74762 16.1857 0.743452 21.8362 0.0142347 25.1046C-0.246678 26.2732 3.1109 56.8646 7.47617 93.085L15.4131 158.94L18.6394 162.309C24.5517 168.482 37.9151 172.532 58.7488 174.465C87.1139 177.097 119.945 169.678 124.516 159.604C125.148 158.212 127.1 145.038 128.854 130.33L132.044 103.588L138.79 104.046C144.819 104.455 145.781 104.287 147.836 102.463C152.549 98.2815 149.421 91.2738 139.847 84.5668C137.457 82.8919 135.349 81.3964 135.164 81.2432C134.978 81.091 136.265 68.8736 138.024 54.0959C139.838 38.8548 140.975 26.1228 140.649 24.6768C139.159 18.0446 126.941 9.93083 112.117 5.73011C95.1319 0.917534 71.6799 -1.16275 54.8025 0.64664ZM47.7855 8.53713C26.1398 11.9859 6.29955 20.8703 6.29955 27.1149C6.29955 33.0586 19.5919 39.3864 40.1931 43.2489C54.5148 45.9345 88.1709 45.6758 102.803 42.7679C119.52 39.4452 132.141 33.8751 134.163 28.928C136.66 22.8179 120.509 13.9877 98.507 9.43295C88.2436 7.30877 58.7664 6.78753 47.7855 8.53713ZM7.71366 42.142C7.86586 43.1882 11.006 69.265 14.6914 100.091C22.2194 163.055 20.914 157.672 29.54 161.322C40.873 166.118 48.7948 167.275 70.2733 167.275C88.017 167.275 91.3612 167.028 99.1242 165.149C108.043 162.992 116.698 159.306 118.479 156.909C119.538 155.484 126.115 103.66 125.482 101.726C125.272 101.084 124.493 100.558 123.749 100.558C121.661 100.558 99.7765 90.9366 86.6548 84.2492C76.2183 78.9294 74.5817 78.3493 72.4032 79.1975C69.2255 80.4352 65.6998 78.6548 64.1427 75.0257C60.8303 67.3043 69.8844 60.3386 75.3285 66.4207C76.4574 67.6817 77.3815 69.3538 77.3815 70.1375C77.3815 71.8516 80.0926 73.4443 95.841 80.9798C110.798 88.137 125.858 94.361 126.496 93.6483C127.081 92.9944 133.398 41.3854 132.954 40.8875C132.78 40.6932 130.271 41.6338 127.38 42.9771C99.5666 55.8988 42.8608 56.1276 14.5559 43.433C7.86502 40.4316 7.45275 40.3541 7.71366 42.142ZM40.2583 70.8997C34.0391 81.7682 24.6972 100.051 24.6972 101.354C24.6972 104.919 26.1724 105.229 43.2028 105.229C57.0855 105.229 59.9087 104.996 61.0151 103.761C61.7376 102.953 62.3288 101.987 62.3288 101.614C62.3288 100.846 48.7873 75.3247 46.281 71.3668C44.3075 68.2525 41.8807 68.0638 40.2583 70.8997ZM38.212 88.5107C35.7559 93.1607 33.9186 97.1578 34.1285 97.3922C34.3384 97.6267 38.6678 97.6996 43.7489 97.5538L52.987 97.2886L48.4645 88.8834C45.9766 84.2604 43.6569 80.3829 43.309 80.2671C42.9611 80.1512 40.6672 83.8606 38.212 88.5107ZM133.411 92.9683C133.411 96.275 133.637 96.6384 136.024 97.1718C139.818 98.019 143.446 97.8873 143.446 96.9009C143.446 95.8407 135.623 89.3486 134.344 89.3486C133.818 89.3486 133.411 90.9272 133.411 92.9683ZM88.2587 102.98C77.144 108.364 74.3409 124.873 82.9158 134.451C86.7367 138.72 90.4305 140.109 96.6255 139.609C110.377 138.498 117.008 120.562 108.12 108.519C103.393 102.113 94.9237 99.7518 88.2587 102.98ZM87.7151 112.059C85.2064 114.627 84.6268 115.937 84.3074 119.765C83.8006 125.838 86.3412 130.314 91.4164 132.289C94.5181 133.496 95.3677 133.496 98.4694 132.289C103.545 130.314 106.085 125.838 105.578 119.765C105.259 115.937 104.679 114.627 102.171 112.059C99.5875 109.414 98.538 108.965 94.9429 108.965C91.3478 108.965 90.2983 109.414 87.7151 112.059ZM34.9188 120.34C33.3659 122.074 33.4863 151.326 35.0518 152.777C35.8462 153.514 40.6204 153.768 50.3135 153.592L64.4195 153.336V136.521V119.707L50.1805 119.452C39.8118 119.267 35.6631 119.508 34.9188 120.34ZM40.5861 136.521V147.264H49.785H58.9838V136.521V125.779H49.785H40.5861V136.521Z" fill="currentColor"/>
</svg>
