<svg width="250" height="275" viewBox="0 0 250 275" fill="none" xmlns="http://www.w3.org/2000/svg">
<path fill-rule="evenodd" clip-rule="evenodd" d="M91.3375 1.01615C62.934 3.88736 33.1702 11.9124 17.3998 20.9517C9.57937 25.4346 1.23909 34.314 0.0237245 39.4501C-0.41113 41.2865 5.18483 89.3587 12.4603 146.276L25.6885 249.763L31.0656 255.057C40.9195 264.758 63.1919 271.121 97.9147 274.16C145.19 278.295 199.908 266.637 207.526 250.807C208.58 248.618 211.833 227.917 214.757 204.805L220.073 162.782L231.317 163.501C241.365 164.144 242.968 163.88 246.394 161.013C254.248 154.442 249.035 143.43 233.079 132.891C229.096 130.259 225.582 127.909 225.273 127.668C224.963 127.429 227.108 108.23 230.041 85.0079C233.064 61.0576 234.958 41.0502 234.416 38.7778C231.932 28.3558 211.568 15.6056 186.862 9.00445C158.553 1.44184 119.466 -1.82717 91.3375 1.01615ZM79.6425 13.4155C43.5663 18.835 10.4993 32.7962 10.4993 42.6091C10.4993 51.9493 32.6531 61.8928 66.9885 67.9626C90.8581 72.1828 146.951 71.7762 171.338 67.2066C199.2 61.9853 220.234 53.2322 223.604 45.4583C227.766 35.8567 200.848 21.9807 164.178 14.8232C147.073 11.4852 97.944 10.6661 79.6425 13.4155ZM12.8561 66.2232C13.1098 67.8672 18.3434 108.845 24.4857 157.286C37.0323 256.229 34.8567 247.77 49.2333 253.507C68.1216 261.043 81.3247 262.861 117.122 262.861C146.695 262.86 152.269 262.472 165.207 259.52C180.071 256.13 194.497 250.339 197.466 246.571C199.23 244.332 210.192 162.895 209.137 159.855C208.787 158.846 207.488 158.02 206.249 158.02C202.768 158.02 166.294 142.9 144.425 132.392C127.03 124.032 124.303 123.12 120.672 124.453C115.376 126.398 109.5 123.6 106.904 117.898C101.384 105.764 116.474 94.8178 125.547 104.375C127.429 106.357 128.969 108.985 128.969 110.216C128.969 112.91 133.488 115.412 159.735 127.254C184.663 138.501 209.763 148.282 210.826 147.162C211.802 146.134 222.33 65.0341 221.59 64.2518C221.3 63.9464 217.119 65.4246 212.299 67.5355C165.944 87.8409 71.4346 88.2005 24.2599 68.2518C13.1084 63.5354 12.4213 63.4136 12.8561 66.2232ZM67.0972 111.414C56.7318 128.493 41.162 157.223 41.162 159.27C41.162 164.873 43.6206 165.359 72.0046 165.359C95.1425 165.359 99.8479 164.994 101.692 163.053C102.896 161.783 103.881 160.266 103.881 159.678C103.881 158.472 81.3122 118.367 77.1351 112.148C73.8458 107.254 69.8011 106.957 67.0972 111.414ZM63.6867 139.088C59.5932 146.395 56.5311 152.677 56.8809 153.045C57.2307 153.413 64.4463 153.528 72.9148 153.299L88.3117 152.882L80.7742 139.674C76.6278 132.409 72.7615 126.316 72.1816 126.134C71.6018 125.952 67.7787 131.781 63.6867 139.088ZM222.351 146.093C222.351 151.289 222.728 151.86 226.707 152.699C233.03 154.03 239.076 153.823 239.076 152.273C239.076 150.607 226.038 140.405 223.907 140.405C223.03 140.405 222.351 142.886 222.351 146.093ZM147.098 161.826C128.573 170.287 123.901 196.229 138.193 211.281C144.561 217.989 150.717 220.172 161.042 219.385C183.961 217.64 195.013 189.455 180.2 170.529C172.322 160.464 158.206 156.753 147.098 161.826ZM146.192 176.092C142.011 180.128 141.045 182.187 140.512 188.203C139.668 197.745 143.902 204.78 152.361 207.883C157.53 209.779 158.946 209.779 164.116 207.883C172.574 204.78 176.809 197.745 175.964 188.203C175.432 182.187 174.466 180.128 170.284 176.092C165.979 171.937 164.23 171.231 158.238 171.231C152.246 171.231 150.497 171.937 146.192 176.092ZM58.198 189.105C55.6098 191.831 55.8105 237.799 58.4196 240.078C59.7437 241.236 67.7007 241.636 83.8558 241.36L107.366 240.956V214.534V188.112L83.6342 187.711C66.3529 187.42 59.4385 187.799 58.198 189.105ZM67.6436 214.534V231.415H82.975H98.3064V214.534V197.653H82.975H67.6436V214.534Z" fill="currentColor"/>
</svg>
