<svg width="150" height="186" viewBox="0 0 150 186" fill="none" xmlns="http://www.w3.org/2000/svg">
<path fill-rule="evenodd" clip-rule="evenodd" d="M45.6702 0.519103C24.2998 3.24539 8.29903 9.74567 2.99394 17.8571C0.468047 21.7185 0 25.2897 0 40.6864C0 56.0613 0.474575 59.6874 3.00462 63.6312C4.80502 66.4367 4.84476 66.6301 3.93003 68.1327C0.47754 73.8068 0.489401 73.7201 0.558807 92.9439C0.615162 108.709 0.748043 111.092 1.69481 113.337C2.28387 114.735 3.20987 116.265 3.75207 116.735C5.01264 117.831 5.01383 119.543 3.75503 120.639C3.21343 121.11 2.28505 122.619 1.69125 123.991C0.727278 126.222 0.612194 128.416 0.612194 144.584C0.612194 165.503 0.64898 165.684 5.96 170.706C13.1669 177.522 24.9316 181.851 42.7042 184.227C67.6653 187.563 95.8026 183.499 110.066 174.497C114.71 171.566 117.146 169.024 118.941 165.233C120.404 162.145 120.415 162 120.415 144.753C120.415 126.036 120.292 125.146 117.104 120.749L115.609 118.687L117.104 116.626C117.926 115.492 119.007 113.535 119.507 112.277C120.395 110.041 120.754 104.899 120.071 104.181C119.882 103.982 114.639 109.138 108.421 115.638C102.202 122.139 97.2672 127.619 97.4541 127.815C97.8824 128.265 101.303 127.133 105.811 125.049L109.299 123.435L111.001 125.439C117.762 133.398 104.151 142.421 79.1316 146.569C71.039 147.91 50.2641 148.077 42.4076 146.864C32.775 145.377 21.8599 142.113 15.942 138.949C12.6983 137.216 9.11648 133.871 8.30972 131.822C7.41812 129.557 8.15608 127.12 10.4055 124.896L11.8251 123.493L15.2521 125.073C26.0266 130.036 38.1228 132.735 52.7888 133.447L60.7971 133.836L61.8175 130.228C62.3786 128.244 62.6966 126.38 62.524 126.086C62.3514 125.792 60.1571 125.55 57.6478 125.549C38.557 125.54 18.3492 120.155 11.0628 113.134C8.05524 110.236 7.70464 108.841 7.70464 99.768V91.3945L12.8952 94.1389C24.066 100.046 37.0645 102.984 56.6447 104.029C60.5599 104.238 64.9484 104.177 66.3965 103.893C68.9449 103.394 69.0547 103.277 69.7962 100.268C70.2173 98.5581 70.5673 96.8782 70.5733 96.535C70.5804 96.1444 66.5412 95.8823 59.759 95.8349C38.8952 95.6883 20.9208 91.4126 12.3869 84.5666C8.58141 81.514 7.25736 78.8975 8.24624 76.3859C8.65319 75.3519 9.61597 73.8842 10.3854 73.1242L11.7836 71.7414L16.7144 73.9379C25.6647 77.924 38.0113 80.6772 47.6498 80.8357L53.6786 80.9349L53.8334 78.1268C53.9183 76.5824 53.7705 74.9706 53.5048 74.5444C53.22 74.0876 50.4824 73.5092 46.8252 73.1329C27.2949 71.1242 11.2764 64.6938 8.5209 57.7574C7.621 55.4916 7.33448 40.0624 8.19226 40.0624C8.46099 40.0624 10.1469 40.898 11.9396 41.9195C21.7756 47.5237 41.0604 51.9323 55.6368 51.9098L61.3904 51.9004L63.0217 48.7892C63.9186 47.0781 64.653 45.4364 64.653 45.1418C64.653 44.8467 60.8493 44.4136 56.1997 44.179C36.9441 43.208 22.5332 39.5663 13.5555 33.403C8.87861 30.1925 7.1755 27.3121 8.28599 24.4922C11.0005 17.5994 24.0322 11.8879 43.2974 9.1485C55.1308 7.46555 76.4621 8.22247 86.625 10.686C90.3296 11.584 109.934 11.5746 109.406 10.6748C108.786 9.62087 101.691 6.44592 96.0933 4.71742C85.6593 1.49568 79.1315 0.65701 62.8734 0.447967C54.5536 0.341262 46.8122 0.373086 45.6702 0.519103ZM84.3115 19.3835C83.7046 20.0218 78.498 30.4814 72.7421 42.6277C61.7439 65.8327 60.8262 68.5284 63.4274 69.9929C64.0901 70.3654 68.8548 70.6388 74.6985 70.6388C80.8068 70.6388 84.8222 70.8777 84.8222 71.2409C84.8222 71.5723 83.3362 76.9774 81.5198 83.2531C79.7034 89.5287 77.8656 96.067 77.4361 97.7831C77.0061 99.4991 75.9757 103.29 75.1458 106.207C74.3159 109.124 72.9651 113.898 72.1435 116.815C71.3213 119.733 69.4147 126.316 67.9062 131.447C65.6828 139.005 65.2818 141.049 65.7902 142.224C66.6462 144.2 69.0867 145.126 70.7708 144.115C72.0955 143.319 78.9341 135.973 99.9521 112.767C106.476 105.564 118.476 92.3667 126.618 83.439C134.761 74.5113 143.387 65.0445 145.787 62.4019C149.821 57.9596 150.137 57.4185 149.965 55.2401C149.685 51.6839 148.484 51.3145 137.173 51.3039C131.872 51.2989 127.534 51.1766 127.534 51.0325C127.534 50.8883 128.306 48.431 129.25 45.5724C130.194 42.7132 132.199 36.3646 133.706 31.463C136.549 22.214 136.709 20.0043 134.623 18.83C133.974 18.4643 123.953 18.2222 109.48 18.2222C86.8078 18.2222 85.3514 18.2896 84.3115 19.3835ZM80.8115 43.9625C76.1619 53.6577 72.3588 61.8715 72.3606 62.2147C72.3618 62.6103 75.6725 62.7794 81.4107 62.6758C92.1496 62.4824 93.3253 62.8555 93.6142 66.5478C93.7186 67.8856 93.4084 70.1258 92.9249 71.5255C92.4415 72.9251 91.5006 76.0364 90.8344 78.4388C87.9829 88.7231 80.5879 114.76 80.1121 116.191C78.7982 120.141 77.6586 124.464 77.8716 124.688C78.1842 125.017 79.386 123.804 85.6901 116.797C88.6146 113.547 94.2205 107.372 98.1476 103.074C123.379 75.4661 136.683 60.6809 136.926 59.9782C137.04 59.6487 133.507 59.4066 128.591 59.4066C122.746 59.4066 119.835 59.1708 119.347 58.6578C117.952 57.1902 118.691 53.2346 122.788 40.2384C125.072 32.9937 126.94 26.9015 126.94 26.6999C126.94 26.499 118.463 26.3343 108.103 26.3343H89.2648L80.8115 43.9625ZM15.2064 52.2006C12.0778 55.2507 13.9713 60.6546 18.1689 60.6546C22.2306 60.6546 24.1776 54.6168 20.9718 51.9641C18.9092 50.2574 17.1249 50.3304 15.2064 52.2006ZM14.8463 104.453C13.0869 106.439 13.2506 109.541 15.1999 111.154C16.0594 111.865 17.358 112.447 18.0859 112.447C20.3626 112.447 22.5349 110.14 22.5349 107.722C22.5349 103.478 17.5769 101.37 14.8463 104.453ZM7.70464 151.791C7.70464 160.887 8.07066 162.181 11.5522 165.396C16.9641 170.394 29.7277 174.696 45.0616 176.691C56.6506 178.197 75.7698 177.247 87.6922 174.571C97.8723 172.286 107.891 167.601 110.954 163.691L112.703 161.459V152.553C112.703 147.655 112.579 143.648 112.427 143.648C112.275 143.648 110.473 144.612 108.423 145.792C102.148 149.401 95.9438 151.465 84.5256 153.742C78.1652 155.011 75.6067 155.162 60.5005 155.162C45.4312 155.162 42.8287 155.009 36.552 153.754C24.995 151.444 16.181 148.447 11.1275 145.109C9.9102 144.305 8.64251 143.648 8.30972 143.648C7.92947 143.648 7.70464 146.672 7.70464 151.791ZM14.8463 156.246C12.1976 159.236 14.2774 164.24 18.1689 164.24C21.8966 164.24 23.9883 158.905 21.3485 156.128C19.7172 154.412 16.4171 154.472 14.8463 156.246Z" fill="currentColor"/>
</svg>
