<svg width="253" height="297" viewBox="0 0 253 297" fill="currentColor" xmlns="http://www.w3.org/2000/svg">
<path fill-rule="evenodd" clip-rule="evenodd" d="M76.988 0.599993C40.963 4.96899 13.99 15.386 5.047 28.385C0.789004 34.573 0 40.296 0 64.97C0 89.609 0.800009 95.42 5.065 101.74C8.1 106.236 8.167 106.546 6.625 108.954C0.805006 118.047 0.825001 117.908 0.942001 148.715C1.037 173.98 1.261 177.798 2.857 181.396C3.85 183.637 5.411 186.088 6.325 186.842C8.44999 188.597 8.452 191.341 6.33 193.098C5.417 193.852 3.852 196.27 2.851 198.47C1.226 202.044 1.032 205.561 1.032 231.47C1.032 264.995 1.09401 265.284 10.047 273.333C22.196 284.256 42.028 291.193 71.988 295C114.066 300.347 161.498 293.834 185.542 279.408C193.371 274.711 197.477 270.637 200.504 264.562C202.97 259.613 202.988 259.381 202.988 231.742C202.988 201.747 202.781 200.321 197.406 193.274L194.886 189.97L197.406 186.666C198.792 184.849 200.615 181.714 201.457 179.698C202.955 176.114 203.559 167.874 202.408 166.723C202.089 166.404 193.251 174.667 182.769 185.084C172.286 195.502 163.967 204.283 164.282 204.597C165.004 205.319 170.771 203.505 178.369 200.165L184.25 197.579L187.119 200.79C198.515 213.545 175.572 228.005 133.395 234.651C119.753 236.8 84.732 237.068 71.488 235.125C55.25 232.742 36.85 227.51 26.874 222.441C21.406 219.663 15.368 214.303 14.008 211.019C12.505 207.39 13.749 203.483 17.541 199.92L19.934 197.672L25.711 200.203C43.874 208.157 64.265 212.482 88.988 213.623L102.488 214.246L104.208 208.464C105.154 205.285 105.69 202.298 105.399 201.826C105.108 201.355 101.409 200.968 97.179 200.967C64.997 200.952 30.932 192.322 18.649 181.071C13.579 176.427 12.988 174.191 12.988 159.651V146.232L21.738 150.63C40.569 160.096 62.481 164.805 95.488 166.48C102.088 166.815 109.486 166.717 111.927 166.262C116.223 165.462 116.408 165.275 117.658 160.453C118.368 157.712 118.958 155.02 118.968 154.47C118.98 153.844 112.171 153.424 100.738 153.348C65.567 153.113 35.267 146.261 20.881 135.29C14.466 130.398 12.234 126.205 13.901 122.18C14.587 120.523 16.21 118.171 17.507 116.953L19.864 114.737L28.176 118.257C43.264 124.645 64.077 129.057 80.325 129.311L90.488 129.47L90.749 124.97C90.892 122.495 90.643 119.912 90.195 119.229C89.715 118.497 85.1 117.57 78.935 116.967C46.0121 113.748 19.009 103.443 14.364 92.327C12.847 88.696 12.364 63.97 13.81 63.97C14.263 63.97 17.105 65.309 20.127 66.946C36.708 75.927 69.217 82.992 93.789 82.956L103.488 82.941L106.238 77.955C107.75 75.213 108.988 72.582 108.988 72.11C108.988 71.637 102.576 70.943 94.738 70.567C62.278 69.011 37.985 63.175 22.851 53.298C14.967 48.153 12.096 43.537 13.968 39.018C18.544 27.972 40.512 18.819 72.988 14.429C92.936 11.732 128.895 12.945 146.027 16.893C152.272 18.332 185.32 18.317 184.43 16.875C183.385 15.186 171.425 10.098 161.988 7.328C144.399 2.165 133.395 0.820994 105.988 0.485994C91.963 0.314994 78.913 0.365993 76.988 0.599993ZM142.127 30.831C141.104 31.854 132.327 48.616 122.624 68.081C104.084 105.268 102.537 109.588 106.922 111.935C108.039 112.532 116.071 112.97 125.922 112.97C136.219 112.97 142.988 113.353 142.988 113.935C142.988 114.466 140.483 123.128 137.421 133.185C134.359 143.242 131.261 153.72 130.537 156.47C129.812 159.22 128.075 165.295 126.676 169.97C125.277 174.645 123 182.295 121.615 186.97C120.229 191.645 117.015 202.196 114.472 210.418C110.724 222.53 110.048 225.806 110.905 227.688C112.348 230.855 116.462 232.34 119.301 230.719C121.534 229.444 133.062 217.671 168.493 180.483C179.49 168.94 199.719 147.79 213.445 133.483C227.171 119.176 241.712 104.005 245.758 99.77C252.559 92.651 253.091 91.784 252.801 88.293C252.329 82.594 250.305 82.002 231.238 81.985C222.301 81.977 214.988 81.781 214.988 81.55C214.988 81.319 216.29 77.381 217.881 72.8C219.473 68.218 222.853 58.044 225.393 50.189C230.186 35.367 230.456 31.826 226.939 29.944C225.845 29.358 208.953 28.97 184.554 28.97C146.335 28.97 143.88 29.078 142.127 30.831ZM136.227 70.22C128.389 85.757 121.978 98.92 121.981 99.47C121.983 100.104 127.564 100.375 137.237 100.209C155.34 99.899 157.322 100.497 157.809 106.414C157.985 108.558 157.462 112.148 156.647 114.391C155.832 116.634 154.246 121.62 153.123 125.47C148.316 141.951 135.85 183.677 135.048 185.97C132.833 192.299 130.912 199.227 131.271 199.587C131.798 200.114 133.824 198.17 144.451 186.941C149.381 181.732 158.831 171.836 165.451 164.949C207.985 120.706 230.412 97.012 230.821 95.886C231.013 95.358 225.058 94.97 216.771 94.97C206.918 94.97 202.01 94.592 201.188 93.77C198.836 91.418 200.082 85.079 206.988 64.252C210.838 52.642 213.988 42.879 213.988 42.556C213.988 42.234 199.698 41.97 182.233 41.97H150.477L136.227 70.22ZM25.634 83.422C20.36 88.31 23.552 96.97 30.628 96.97C37.475 96.97 40.757 87.294 35.353 83.043C31.876 80.308 28.868 80.425 25.634 83.422ZM25.027 167.159C22.061 170.342 22.337 175.313 25.623 177.897C27.072 179.037 29.261 179.97 30.488 179.97C34.326 179.97 37.988 176.273 37.988 172.397C37.988 165.596 29.63 162.218 25.027 167.159ZM12.988 243.02C12.988 257.597 13.605 259.67 19.474 264.823C28.597 272.833 50.113 279.727 75.962 282.923C95.498 285.337 127.728 283.814 147.826 279.526C164.987 275.865 181.876 268.356 187.04 262.091L189.988 258.514V244.242C189.988 236.392 189.778 229.97 189.522 229.97C189.266 229.97 186.229 231.516 182.772 233.406C172.195 239.19 161.736 242.498 142.488 246.147C131.766 248.18 127.453 248.422 101.988 248.422C76.585 248.422 72.198 248.177 61.617 246.166C42.135 242.464 27.277 237.661 18.758 232.312C16.706 231.024 14.569 229.97 14.008 229.97C13.367 229.97 12.988 234.817 12.988 243.02ZM25.027 250.159C20.562 254.951 24.068 262.97 30.628 262.97C36.912 262.97 40.438 254.42 35.988 249.97C33.238 247.22 27.675 247.316 25.027 250.159Z" fill="currentColor"/>
</svg>
