<svg width="200" height="236" viewBox="0 0 200 236" fill="none" xmlns="http://www.w3.org/2000/svg">
<path fill-rule="evenodd" clip-rule="evenodd" d="M60.8936 0.555386C32.3997 4.01851 11.0654 12.2756 3.99192 22.5794C0.624062 27.4843 0 32.0207 0 51.5787C0 71.109 0.632767 75.7152 4.00616 80.7248C6.40669 84.2885 6.45968 84.5343 5.24004 86.443C0.63672 93.6506 0.652535 93.5404 0.745076 117.96C0.820216 137.986 0.997391 141.013 2.25975 143.865C3.04516 145.641 4.27983 147.584 5.00275 148.181C6.68352 149.573 6.68511 151.748 5.00671 153.14C4.28458 153.738 3.04674 155.655 2.255 157.399C0.969705 160.231 0.816258 163.019 0.816258 183.556C0.816258 210.13 0.865307 210.359 7.94667 216.739C17.5559 225.397 33.2421 230.896 56.9389 233.914C90.2204 238.152 127.737 232.989 146.754 221.555C152.947 217.831 156.194 214.602 158.589 209.787C160.539 205.864 160.553 205.68 160.553 183.772C160.553 159.996 160.39 158.866 156.138 153.28L154.145 150.661L156.138 148.042C157.234 146.602 158.676 144.117 159.342 142.519C160.527 139.678 161.005 133.146 160.095 132.234C159.842 131.981 152.852 138.531 144.561 146.788C136.27 155.046 129.69 162.006 129.939 162.255C130.51 162.827 135.071 161.39 141.081 158.742L145.732 156.692L148.002 159.237C157.015 169.348 138.869 180.81 105.509 186.078C94.7186 187.781 67.0187 187.993 56.5434 186.453C43.7 184.564 29.1465 180.417 21.256 176.399C16.9311 174.197 12.1553 169.949 11.0796 167.346C9.89082 164.469 10.8748 161.372 13.874 158.548L15.7668 156.766L20.3361 158.772C34.7021 165.077 50.8304 168.505 70.385 169.41L81.0629 169.903L82.4233 165.32C83.1715 162.8 83.5955 160.433 83.3653 160.059C83.1351 159.685 80.2094 159.379 76.8637 159.378C51.4094 159.366 24.4656 152.525 14.7504 143.607C10.7403 139.926 10.2729 138.154 10.2729 126.628V115.992L17.1937 119.478C32.088 126.981 49.4194 130.714 75.5262 132.041C80.7465 132.307 86.5979 132.229 88.5286 131.869C91.9265 131.234 92.0729 131.086 93.0616 127.264C93.6231 125.091 94.0898 122.958 94.0977 122.522C94.1072 122.025 88.7216 121.692 79.6787 121.632C51.8602 121.446 27.8944 116.015 16.5158 107.318C11.4419 103.441 9.67648 100.117 10.995 96.9267C11.5376 95.6132 12.8213 93.7489 13.8472 92.7835L15.7114 91.0269L22.2858 93.8171C34.2196 98.8806 50.6817 102.378 63.533 102.579L71.5715 102.705L71.7779 99.1382C71.891 97.1764 71.6941 95.1289 71.3397 94.5875C70.9601 94.0073 67.3098 93.2725 62.4336 92.7945C36.3932 90.243 15.0352 82.0746 11.3612 73.2635C10.1613 70.3853 9.7793 50.7861 10.923 50.7861C11.2813 50.7861 13.5292 51.8475 15.9194 53.145C29.0342 60.2639 54.7472 65.864 74.1824 65.8355L81.8538 65.8236L84.0289 61.8714C85.2248 59.6979 86.204 57.6124 86.204 57.2383C86.204 56.8634 81.1324 56.3133 74.933 56.0152C49.2588 54.7819 30.0442 50.1559 18.074 42.3268C11.8382 38.2486 9.56733 34.5897 11.048 31.0077C14.6674 22.252 32.043 14.9968 57.7298 11.517C73.5077 9.37925 101.949 10.3407 115.5 13.4702C120.439 14.6108 146.579 14.5989 145.875 13.4559C145.048 12.1171 135.589 8.08405 128.124 5.88839C114.212 1.7959 105.509 0.730564 83.8312 0.465024C72.7381 0.32948 62.4162 0.369904 60.8936 0.555386ZM112.415 24.5182C111.606 25.3291 104.664 38.6156 96.9894 54.0447C82.3252 83.5212 81.1016 86.9455 84.5699 88.8059C85.4534 89.2791 91.8063 89.6263 99.598 89.6263C107.742 89.6263 113.096 89.9299 113.096 90.3912C113.096 90.8121 111.115 97.6781 108.693 105.65C106.271 113.622 103.821 121.927 103.248 124.107C102.675 126.287 101.301 131.102 100.194 134.808C99.0878 138.513 97.2868 144.577 96.1913 148.283C95.0951 151.989 92.553 160.352 90.5416 166.869C87.5771 176.47 87.0424 179.067 87.7203 180.558C88.8616 183.069 92.1156 184.246 94.3611 182.961C96.1273 181.95 105.245 172.618 133.269 143.141C141.968 133.991 157.968 117.227 168.824 105.886C179.681 94.5455 191.182 82.5201 194.382 79.1632C199.761 73.5203 200.182 72.8331 199.953 70.0659C199.58 65.5485 197.979 65.0793 182.898 65.0658C175.829 65.0595 170.045 64.9041 170.045 64.721C170.045 64.5379 171.075 61.4164 172.333 57.7853C173.592 54.1533 176.266 46.0888 178.275 39.8625C182.066 28.1137 182.279 25.3069 179.497 23.8151C178.632 23.3506 165.271 23.0431 145.973 23.0431C115.744 23.0431 113.802 23.1287 112.415 24.5182ZM107.749 55.7402C101.549 68.0557 96.4785 78.4895 96.4808 78.9254C96.4824 79.428 100.897 79.6428 108.548 79.5112C122.866 79.2655 124.434 79.7395 124.819 84.4296C124.958 86.1291 124.545 88.9747 123.9 90.7527C123.255 92.5306 122.001 96.4828 121.113 99.5345C117.31 112.598 107.451 145.673 106.816 147.49C105.064 152.507 103.545 157.999 103.829 158.284C104.246 158.702 105.848 157.161 114.253 148.26C118.153 144.131 125.627 136.287 130.863 130.828C164.506 95.7583 182.244 76.9771 182.568 76.0845C182.72 75.666 178.01 75.3585 171.455 75.3585C163.662 75.3585 159.78 75.0588 159.13 74.4073C157.269 72.5429 158.255 67.5183 163.717 51.0096C166.762 41.8069 169.254 34.0681 169.254 33.8121C169.254 33.5569 157.951 33.3476 144.137 33.3476H119.02L107.749 55.7402ZM20.2752 66.2049C16.1037 70.0794 18.6285 76.9438 24.2252 76.9438C29.6408 76.9438 32.2367 69.274 27.9624 65.9044C25.2123 63.7365 22.8331 63.8293 20.2752 66.2049ZM19.7951 132.58C17.4491 135.103 17.6674 139.043 20.2665 141.091C21.4126 141.995 23.144 142.734 24.1145 142.734C27.1501 142.734 30.0466 139.804 30.0466 136.732C30.0466 131.341 23.4358 128.663 19.7951 132.58ZM10.2729 192.711C10.2729 204.266 10.7609 205.909 15.403 209.994C22.6188 216.343 39.6369 221.807 60.0821 224.341C75.5341 226.254 101.026 225.047 116.923 221.648C130.496 218.746 143.855 212.794 147.939 207.828L150.271 204.993V193.68C150.271 187.458 150.105 182.367 149.902 182.367C149.7 182.367 147.298 183.593 144.563 185.091C136.198 189.676 127.925 192.298 112.701 195.19C104.22 196.802 100.809 196.993 80.6674 196.993C60.5749 196.993 57.105 196.799 48.7359 195.205C33.3267 192.271 21.5747 188.464 14.8366 184.224C13.2136 183.203 11.5233 182.367 11.0796 182.367C10.5726 182.367 10.2729 186.209 10.2729 192.711ZM19.7951 198.37C16.2635 202.169 19.0366 208.525 24.2252 208.525C29.1955 208.525 31.9844 201.748 28.4647 198.22C26.2896 196.041 21.8895 196.117 19.7951 198.37Z" fill="currentColor"/>
</svg>
