<svg width="100%" height="100%" viewBox="0 0 123 122" fill="none" xmlns="http://www.w3.org/2000/svg">
<path fill-rule="evenodd" clip-rule="evenodd" d="M48.631 1.974C1.717 12.647 -15.257 70.543 18.6 104.4C30.45 116.25 44.431 121.979 61.5 121.979C69.548 121.979 73.635 121.463 79 119.772C103.51 112.042 120.419 90.582 122.155 65C123.997 37.856 105.885 11.702 79.5 3.403C70.977 0.722 56.981 0.0739988 48.631 1.974ZM54.745 8.492C52.955 9.584 49.988 12.844 48.151 15.738C44.619 21.305 40.872 30.206 41.709 31.042C41.983 31.316 45.873 31.823 50.353 32.168L58.5 32.796V19.648C58.5 12.417 58.388 6.502 58.25 6.504C58.112 6.506 56.535 7.401 54.745 8.492ZM64.5 19.556V32.796L72.647 32.168C77.127 31.823 81.005 31.328 81.265 31.069C82.181 30.153 78.161 20.716 74.604 15.433C72.622 12.488 69.537 9.232 67.75 8.197L64.5 6.316V19.556ZM36.705 12.034C30.171 15.302 19.5 23.641 19.5 25.478C19.5 26.428 34.484 30.628 35.541 29.975C35.947 29.724 36.586 28.277 36.962 26.759C37.833 23.245 43.205 12.545 45.25 10.25C47.81 7.378 44.724 8.022 36.705 12.034ZM77.75 10.25C79.795 12.545 85.167 23.245 86.038 26.759C86.414 28.277 87.053 29.724 87.459 29.975C88.527 30.635 103.5 26.423 103.5 25.463C103.5 23.688 92.595 15.218 86.116 11.961C78.27 8.017 75.2 7.389 77.75 10.25ZM13.533 33.659C10.396 38.776 7.582 46.95 6.869 53.021L6.225 58.5H18.862C28.444 58.5 31.5 58.191 31.5 57.224C31.5 55.012 33.554 39.073 34.053 37.415C34.427 36.173 32.852 35.379 26.765 33.741C22.494 32.592 18.231 31.352 17.291 30.985C16.047 30.499 15.024 31.228 13.533 33.659ZM97.5 33.25C92.825 34.626 88.925 35.808 88.833 35.877C88.74 35.945 89.028 38.026 89.472 40.501C89.916 42.975 90.59 48.037 90.969 51.75L91.659 58.5H104.217H116.775L116.131 53.021C115.159 44.746 109.094 30.246 106.765 30.624C106.344 30.693 102.175 31.874 97.5 33.25ZM38.622 42.721C38.005 46.264 37.5 51.264 37.5 53.832V58.5H48H58.5V48V37.5L52.75 37.489C49.588 37.483 45.367 37.208 43.372 36.878L39.744 36.278L38.622 42.721ZM71.75 37.243L64.5 37.588V48.044V58.5H75H85.5V53.832C85.5 51.264 85.004 46.314 84.397 42.832C83.426 37.256 83.038 36.524 81.147 36.699C79.966 36.808 75.737 37.053 71.75 37.243ZM6.831 69.391C7.936 79.97 14.079 93.261 17.291 92.025C18.526 91.55 30.217 88.098 34.162 87.043C34.25 87.019 33.946 84.75 33.484 82C33.023 79.25 32.351 73.963 31.993 70.25L31.341 63.5H18.778H6.215L6.831 69.391ZM37.5 68.668C37.5 71.511 38.004 76.731 38.62 80.269L39.74 86.702L42.745 86.101C44.398 85.77 48.619 85.5 52.125 85.5H58.5V74.5V63.5H48H37.5V68.668ZM64.5 74.5V85.5H70.875C74.381 85.5 78.602 85.77 80.255 86.101L83.26 86.702L84.38 80.269C84.996 76.731 85.5 71.511 85.5 68.668V63.5H75H64.5V74.5ZM91.007 70.25C90.649 73.963 89.977 79.25 89.516 82C89.054 84.75 88.75 87.032 88.838 87.072C88.927 87.111 92.375 88.071 96.5 89.206C100.625 90.341 104.769 91.587 105.709 91.976C106.971 92.497 107.955 91.807 109.467 89.341C112.73 84.019 115.503 75.765 116.169 69.391L116.785 63.5H104.222H91.659L91.007 70.25ZM44.659 91.23C41.596 91.606 41.374 91.863 41.987 94.32C43.877 101.895 50.905 112.624 55.552 115.027L58.5 116.551V103.526V90.5L53.25 90.66C50.362 90.748 46.497 91.005 44.659 91.23ZM64.5 103.444V116.684L67.75 114.803C69.537 113.768 72.622 110.512 74.604 107.567C78.161 102.284 82.181 92.847 81.265 91.931C81.005 91.672 77.127 91.177 72.647 90.832L64.5 90.204V103.444ZM27.186 94.461C23.439 95.469 20.064 96.613 19.686 97.004C18.472 98.259 29.784 107.502 36.884 111.055C44.746 114.989 47.783 115.603 45.267 112.75C43.248 110.461 38.92 102.041 37.199 97.056C36.45 94.887 35.424 93.003 34.919 92.87C34.413 92.736 30.934 93.452 27.186 94.461ZM86.484 95.042C85.943 96.466 85.5 97.883 85.5 98.191C85.5 99.332 79.257 111.059 77.75 112.75C75.2 115.611 78.27 114.983 86.116 111.039C92.67 107.744 103.5 99.305 103.5 97.493C103.5 96.726 97.618 94.772 90.234 93.086C87.899 92.552 87.315 92.857 86.484 95.042Z" fill="currentColor"/>
</svg>
