<svg width="198" height="200" viewBox="0 0 198 200" fill="none" xmlns="http://www.w3.org/2000/svg">
<path fill-rule="evenodd" clip-rule="evenodd" d="M78.7219 1.80175C1.47236 19.4291 -26.4774 115.049 29.2723 170.967C48.7847 190.538 71.8061 200 99.9123 200C113.164 200 119.894 199.148 128.728 196.355C169.087 183.588 196.93 148.145 199.788 105.894C202.821 61.0639 172.998 17.8684 129.551 4.16186C115.517 -0.266031 92.4712 -1.33626 78.7219 1.80175ZM88.7894 12.5668C85.8419 14.3703 80.9564 19.7545 77.9316 24.5341C72.1157 33.7285 65.9458 48.4292 67.324 49.81C67.7752 50.2625 74.1806 51.0999 81.5574 51.6697L94.9724 52.7068V30.9918C94.9724 19.0492 94.788 9.28012 94.5608 9.28343C94.3335 9.28673 91.7368 10.7649 88.7894 12.5668ZM104.852 30.8399V52.7068L118.267 51.6697C125.644 51.0999 132.03 50.2823 132.458 49.8546C133.966 48.3417 127.347 32.7557 121.49 24.0304C118.226 19.1665 113.146 13.7889 110.204 12.0796L104.852 8.97293V30.8399ZM59.0843 18.4167C48.3253 23.8141 30.7542 37.5866 30.7542 40.6206C30.7542 42.1896 55.4272 49.1262 57.1677 48.0477C57.8362 47.6332 58.8884 45.2433 59.5075 42.7362C60.9417 36.9326 69.7874 19.2606 73.1547 15.4703C77.3701 10.7269 72.2886 11.7905 59.0843 18.4167ZM126.67 15.4703C130.037 19.2606 138.883 36.9326 140.317 42.7362C140.936 45.2433 141.988 47.6332 142.657 48.0477C144.416 49.1378 169.07 42.1813 169.07 40.5958C169.07 37.6642 151.114 23.6753 140.446 18.2961C127.526 11.7823 122.471 10.7451 126.67 15.4703ZM20.9288 54.1322C15.7634 62.5833 11.1298 76.0834 9.95576 86.1101L8.89534 95.1591H29.7037C45.4816 95.1591 50.5137 94.6488 50.5137 93.0517C50.5137 89.3984 53.8958 63.0738 54.7175 60.3355C55.3333 58.2842 52.7399 56.9729 42.7169 54.2676C35.6842 52.3699 28.6647 50.322 27.1168 49.7158C25.0685 48.9132 23.384 50.1172 20.9288 54.1322ZM159.191 53.4567C151.493 55.7292 145.071 57.6814 144.919 57.7954C144.766 57.9077 145.24 61.3446 145.972 65.4323C146.703 69.5183 147.812 77.8786 148.437 84.011L149.573 95.1591H170.251H190.929L189.869 86.1101C188.268 72.4433 178.282 48.4953 174.447 49.1196C173.753 49.2336 166.889 51.1841 159.191 53.4567ZM62.2409 69.0988C61.2249 74.9504 60.3934 83.2083 60.3934 87.4496V95.1591H77.6829H94.9724V77.8175V60.4759L85.5044 60.4577C80.2978 60.4478 73.3474 59.9936 70.0624 59.4486L64.0884 58.4577L62.2409 69.0988ZM116.79 60.0514L104.852 60.6212V77.8902V95.1591H122.142H139.431V87.4496C139.431 83.2083 138.614 75.033 137.615 69.2821C136.016 60.0729 135.377 58.8639 132.263 59.153C130.319 59.333 123.355 59.7376 116.79 60.0514ZM9.89319 113.147C11.7127 130.619 21.8279 152.57 27.1168 150.528C29.1504 149.744 48.4011 144.043 54.897 142.3C55.0419 142.261 54.5413 138.513 53.7806 133.971C53.0215 129.429 51.9149 120.698 51.3255 114.565L50.2519 103.417H29.5654H8.87887L9.89319 113.147ZM60.3934 111.952C60.3934 116.648 61.2233 125.269 62.2376 131.112L64.0818 141.737L69.0299 140.744C71.7518 140.198 78.7022 139.752 84.4752 139.752H94.9724V121.584V103.417H77.6829H60.3934V111.952ZM104.852 121.584V139.752H115.349C121.122 139.752 128.073 140.198 130.795 140.744L135.743 141.737L137.587 131.112C138.601 125.269 139.431 116.648 139.431 111.952V103.417H122.142H104.852V121.584ZM148.499 114.565C147.91 120.698 146.803 129.429 146.044 133.971C145.283 138.513 144.783 142.282 144.928 142.348C145.074 142.413 150.752 143.998 157.544 145.873C164.336 147.747 171.16 149.805 172.708 150.448C174.786 151.308 176.406 150.168 178.896 146.096C184.269 137.306 188.835 123.674 189.931 113.147L190.946 103.417H170.259H149.573L148.499 114.565ZM72.1816 149.215C67.138 149.836 66.7724 150.261 67.7818 154.319C70.8939 166.83 82.4664 184.549 90.1182 188.518L94.9724 191.035V169.523V148.01L86.3277 148.274C81.5722 148.419 75.208 148.844 72.1816 149.215ZM104.852 169.388V191.255L110.204 188.148C113.146 186.439 118.226 181.061 121.49 176.197C127.347 167.472 133.966 151.886 132.458 150.373C132.03 149.945 125.644 149.128 118.267 148.558L104.852 147.521V169.388ZM43.4102 154.552C37.2403 156.217 31.6829 158.106 31.0605 158.752C29.0615 160.824 47.6881 176.09 59.3791 181.958C72.3248 188.455 77.3256 189.469 73.1827 184.758C69.8582 180.977 62.7316 167.071 59.8978 158.838C58.6644 155.255 56.975 152.144 56.1435 151.924C55.3103 151.703 49.5817 152.885 43.4102 154.552ZM141.051 155.511C140.161 157.863 139.431 160.203 139.431 160.712C139.431 162.597 129.151 181.965 126.67 184.758C122.471 189.483 127.526 188.446 140.446 181.932C151.237 176.49 169.07 162.552 169.07 159.559C169.07 158.293 159.385 155.065 147.226 152.281C143.381 151.399 142.42 151.903 141.051 155.511Z" fill="currentColor"/>
</svg>
