<svg width="200" height="200" viewBox="0 0 200 200" fill="none" xmlns="http://www.w3.org/2000/svg">
<path fill-rule="evenodd" clip-rule="evenodd" d="M5.30079 1.23744C3.36216 2.20379 2.51202 3.00853 1.42116 4.91043C0.0706081 7.2654 0.0241677 7.55166 0.0199028 13.5521L0.0156366 19.7578L8.19002 20.0678C20.5791 20.5379 30.4902 21.9635 43.4494 25.1384C86.8324 35.7673 125.44 62.6436 150.646 99.763C165.556 121.719 175.452 146.259 179.602 171.564C180.832 179.058 181.985 190.909 181.985 196.048V200L187.316 199.99C193.106 199.978 195.442 199.313 197.481 197.094C200.058 194.291 199.992 195.364 199.992 156.495V120.543L198.151 116.298C182.053 79.1777 154.41 46.2393 120.138 23.3412C108.328 15.4507 94.1585 7.98862 80.817 2.63412L74.2533 0H41.0184H7.78391L5.30079 1.23744ZM140.751 0.847392C145.308 3.98578 158.486 14.1725 163.23 18.2242C173.962 27.3891 185.329 39.7128 195.788 53.5218L199.755 58.7602L199.878 33.0555L200 7.35024L198.904 5.21991C198.281 4.00948 196.932 2.47346 195.779 1.66303L193.75 0.236967L166.662 0.136492C140.966 0.0412314 139.633 0.0777243 140.751 0.847392ZM0.0156366 66.4498V82.7962L5.82064 83.119C35.1067 84.7464 62.839 97.0891 83.6114 117.74C104.19 138.2 116.678 165.826 118.317 194.522L118.63 200H135.38H152.13V195.785C152.13 179.525 147.21 158.16 139.383 140.431C126.494 111.24 103.105 85.5711 75.1252 69.9128C53.6813 57.9123 31.9735 51.7678 6.29451 50.4303L0.0156366 50.1033V66.4498ZM0.126051 153.68L0.252575 193.757L1.67421 195.776C2.45611 196.886 4.03554 198.291 5.18422 198.897L7.27307 200H47.9517H88.6307L88.6222 197.038C88.6018 190.057 85.9746 177.548 82.8973 169.775C80.598 163.969 76.0782 155.6 72.6212 150.745C68.7838 145.358 60.962 137.082 55.7299 132.873C41.8903 121.739 23.5242 114.689 6.28646 113.892L0 113.601L0.126051 153.68Z" fill="currentColor"/>
</svg>
