<svg width="100%" height="100%" viewBox="0 0 423 422" fill="none" xmlns="http://www.w3.org/2000/svg">
<path fill-rule="evenodd" clip-rule="evenodd" d="M11.186 2.611C7.095 4.65 5.301 6.348 2.999 10.361C0.149001 15.33 0.0509998 15.934 0.0419998 28.595L0.0329971 41.689L17.283 42.343C43.427 43.335 64.342 46.343 91.689 53.042C183.238 75.469 264.709 132.178 317.901 210.5C349.364 256.828 370.248 308.607 379.006 362C381.6 377.812 384.033 402.819 384.033 413.661V422L395.283 421.978C407.503 421.954 412.431 420.551 416.735 415.868C422.173 409.953 422.033 412.219 422.033 330.205V254.345L418.148 245.388C384.177 167.065 325.843 97.565 253.522 49.25C228.599 32.601 198.698 16.856 170.544 5.558L156.693 0H86.559H16.426L11.186 2.611ZM297.019 1.788C306.636 8.41 334.446 29.904 344.457 38.453C367.104 57.791 391.091 83.794 413.161 112.931L421.533 123.984L421.792 69.747L422.05 15.509L419.737 11.014C418.423 8.46 415.575 5.219 413.143 3.509L408.862 0.5L351.698 0.287998C297.474 0.0869982 294.661 0.163998 297.019 1.788ZM0.0329971 140.209V174.7L12.283 175.381C74.084 178.815 132.606 204.858 176.441 248.432C219.868 291.602 246.22 349.893 249.678 410.442L250.338 422H285.685H321.033V413.106C321.033 378.798 310.65 333.718 294.133 296.31C266.935 234.716 217.577 180.555 158.533 147.516C113.281 122.195 67.472 109.23 13.283 106.408L0.0329971 105.718V140.209ZM0.265999 324.264L0.532997 408.828L3.533 413.087C5.183 415.43 8.51599 418.394 10.94 419.673L15.348 422H101.19H187.033L187.015 415.75C186.972 401.021 181.428 374.626 174.934 358.226C170.082 345.975 160.544 328.315 153.249 318.073C145.151 306.706 128.645 289.243 117.604 280.362C88.399 256.87 49.642 241.994 13.266 240.312L0 239.699L0.265999 324.264Z" fill="currentColor"/>
</svg>
